{
	"asset":{
		"generator":"Khronos glTF Blender I/O v3.6.27",
		"version":"2.0"
	},
	"extensionsUsed":[
		"KHR_materials_emissive_strength"
	],
	"scene":0,
	"scenes":[
		{
			"name":"Scene",
			"nodes":[
				0
			]
		}
	],
	"nodes":[
		{
			"mesh":0,
			"name":"carrier",
			"rotation":[
				0.70710688829422,
				0,
				0,
				0.7071066498756409
			],
			"scale":[
				0.050000011920928955,
				0.050000011920928955,
				0.050000011920928955
			]
		}
	],
	"materials":[
		{
			"doubleSided":true,
			"emissiveFactor":[
				1,
				1,
				1
			],
			"extensions":{
				"KHR_materials_emissive_strength":{
					"emissiveStrength":2
				}
			},
			"name":"carrier material",
			"pbrMetallicRoughness":{
				"baseColorTexture":{
					"index":0
				},
				"metallicRoughnessTexture":{
					"index":1
				},
				"roughnessFactor":0.5
			}
		}
	],
	"meshes":[
		{
			"name":"Cube.004",
			"primitives":[
				{
					"attributes":{
						"POSITION":0,
						"NORMAL":1,
						"TEXCOORD_0":2
					},
					"indices":3,
					"material":0
				}
			]
		}
	],
	"textures":[
		{
			"sampler":0,
			"source":0
		},
		{
			"sampler":0,
			"source":1
		}
	],
	"images":[
		{
			"mimeType":"image/png",
			"name":"carrier_Albedo_red",
			"uri":"carrier_Albedo_red.png"
		},
		{
			"mimeType":"image/png",
			"name":"Image",
			"uri":"Image.png"
		}
	],
	"accessors":[
		{
			"bufferView":0,
			"componentType":5126,
			"count":4258,
			"max":[
				93.55520629882812,
				164.343994140625,
				180.19259643554688
			],
			"min":[
				-93.55520629882812,
				-377.06292724609375,
				-27.41162109375
			],
			"type":"VEC3"
		},
		{
			"bufferView":1,
			"componentType":5126,
			"count":4258,
			"type":"VEC3"
		},
		{
			"bufferView":2,
			"componentType":5126,
			"count":4258,
			"type":"VEC2"
		},
		{
			"bufferView":3,
			"componentType":5123,
			"count":7410,
			"type":"SCALAR"
		}
	],
	"bufferViews":[
		{
			"buffer":0,
			"byteLength":51096,
			"byteOffset":0,
			"target":34962
		},
		{
			"buffer":0,
			"byteLength":51096,
			"byteOffset":51096,
			"target":34962
		},
		{
			"buffer":0,
			"byteLength":34064,
			"byteOffset":102192,
			"target":34962
		},
		{
			"buffer":0,
			"byteLength":14820,
			"byteOffset":136256,
			"target":34963
		}
	],
	"samplers":[
		{
			"magFilter":9729,
			"minFilter":9987
		}
	],
	"buffers":[
		{
			"byteLength":151076,
			"uri":"carrier.bin"
		}
	]
}
